<?xml version="1.0" encoding="utf-8"?>
<!-- Generator: Adobe Illustrator 21.0.0, SVG Export Plug-In . SVG Version: 6.00 Build 0)  -->
<svg version="1.1" xmlns="http://www.w3.org/2000/svg" xmlns:xlink="http://www.w3.org/1999/xlink" x="0px" y="0px"
	 viewBox="0 0 900 900" style="enable-background:new 0 0 900 900;" xml:space="preserve">
<g id="Layer_2">
</g>
<g id="Layer_1">
	<g>
		<g>
			<path d="M431,76.6c18.9-5.5,39.7-10.1,59.5-10.5c17.4-0.3,33.9,6.1,46.9,17.5c20.8,18.2,30.1,46,34.3,72.5
				c2.5,15.8,3,31.8,3.6,47.7c0.7,20.7,1.4,41.5,2,62.2c1.3,41.1,2.6,82.2,4.9,123.2c2.5,45.3,6.2,90.9,14,135.6
				c0.3,1.9,3.2,1.1,2.9-0.8c-7.4-42.2-11-85.2-13.5-127.9c-2.5-42.7-3.9-85.4-5.2-128.2c-0.7-21.4-1.3-42.8-2.1-64.2
				c-0.6-15.8-1.1-31.6-3.5-47.2c-4.1-26.6-13.2-54.5-33.4-73.4c-12.2-11.3-27.9-18.8-44.6-19.9c-10.9-0.7-21.9,1.2-32.7,2.9
				c-11.5,1.8-22.8,4.3-33.9,7.5C428.3,74.3,429.1,77.2,431,76.6L431,76.6z"/>
		</g>
	</g>
	<g>
		<g>
			<path d="M593.2,513.8c5,18.6-1.3,36.9-14.4,50.6c-12.4,12.8-30.9,20.9-47.8,25.8c-33.8,9.7-69.6,7.3-104.3,5.3
				c-20-1.2-40-1.6-60-2.8c-21.7-1.3-43.3-3.1-65-5c-21.7-1.9-43.3-3.9-65-5.7c-21.7-1.7-43-2.3-64.7-1.5c-22,0.8-43.8,0.2-65.8-0.3
				c-9.6-0.2-19.8-1.3-28.1-6.4c-2.3-1.4-4.1-2.5-3.1-5.3c0.9-2.7,2.4-5.3,4.3-7.5c3.4-3.9,7.7-6.8,12.3-9.1
				c1.7-0.9,0.2-3.5-1.5-2.6c-7,3.5-13.8,8.7-17.1,16c-1,2.1-2.5,5.3-1.4,7.5c1.3,2.8,7.5,5.2,10.1,6.2c7.5,3.1,15.7,3.9,23.8,4.2
				c9.8,0.3,19.6,0.6,29.4,0.9c23.5,0.8,46.9-1.7,70.4-1.1c23.6,0.6,47.3,3.3,70.9,5.4c23.6,2.1,47.2,4.3,70.9,6
				c22.9,1.7,45.9,2.2,68.8,3.5c37,2.1,75.1,5.7,111.5-3.5c18.9-4.8,39.8-13.5,53.6-27.7c13.9-14.4,20.5-33.9,15.2-53.5
				C595.6,511.2,592.7,512,593.2,513.8L593.2,513.8z"/>
		</g>
	</g>
	<g>
		<g>
			<path d="M495.6,593.5c3.3,27.5,7.4,55,12.2,82.2c0.3,1.9,3.2,1.1,2.9-0.8c-4.8-27-8.9-54.2-12.1-81.4
				C498.4,591.6,495.4,591.5,495.6,593.5L495.6,593.5z"/>
		</g>
	</g>
	<g>
		<g>
			<path d="M509.1,672.3c6.5,5,14,7.6,22.2,8c0-1,0-2,0-3c-8.8-0.3-17.6-1.4-26.2-3.3c0,1,0,1.9,0,2.9c1.4-0.8,2.9-1.1,4.5-0.9
				c-0.4-0.8-0.9-1.5-1.3-2.3c-5.5,8.5-11,17-16.5,25.4c-1.1,1.6,1.5,3.1,2.6,1.5c5.5-8.5,11-17,16.5-25.4c0.6-1-0.2-2.2-1.3-2.3
				c-2,0-3.5,0.2-5.3,1c-1.2,0.5-1.6,2.5,0,2.9c8.9,2,17.9,3.1,27,3.4c1.9,0.1,1.9-2.9,0-3c-7.7-0.3-14.6-2.9-20.6-7.6
				C509.1,668.6,507.6,671.2,509.1,672.3L509.1,672.3z"/>
		</g>
	</g>
	<g>
		<g>
			<path d="M295.7,591.6c0.8,25.5,3.5,51,7.9,76.1c0.3,1.7,3,1.3,2.9-0.4c-0.3-7,0.7-13.7,3.1-20.3c0.6-1.6-1.9-2.6-2.7-1.2
				c-8.1,13.8-17.4,26.9-27.8,39c0.8,0.6,1.6,1.2,2.4,1.8c5.3-7.6,11.2-14.8,17.5-21.6c4.4-4.6,12.7-9.7,13.6-16.3
				c0.3-1.9-2.6-2.7-2.9-0.8c-0.6,4.3-4.9,7.1-7.9,10c-2.9,2.9-5.8,5.9-8.5,8.9c-5.2,5.8-10,11.9-14.4,18.3c-1,1.4,1.2,3.1,2.4,1.8
				c10.6-12.4,20-25.6,28.2-39.7c-0.9-0.4-1.8-0.8-2.7-1.2c-2.5,6.8-3.6,13.8-3.3,21.1c1-0.1,2-0.3,2.9-0.4
				c-4.4-24.9-7-50.1-7.8-75.3C298.6,589.7,295.6,589.6,295.7,591.6L295.7,591.6z"/>
		</g>
	</g>
	<g>
		<g>
			<path d="M297.4,588.7c-0.4,25.8,2.9,51.4,9.9,76.2c0.6-0.6,1.2-1.2,1.8-1.8c-4-1.5-4.4-6.8-1.3-9.3c-0.8-0.1-1.6-0.2-2.4-0.3
				c7.5,16.6,19.5,30.5,34.8,40.3c1.6,1.1,3.1-1.5,1.5-2.6c-14.8-9.6-26.4-23.2-33.7-39.3c-0.4-1-1.7-0.8-2.4-0.3
				c-5,4.1-3.2,12.2,2.7,14.3c1.1,0.4,2.1-0.8,1.8-1.8c-6.9-24.6-10.2-49.9-9.8-75.4C300.4,586.8,297.4,586.8,297.4,588.7
				L297.4,588.7z"/>
		</g>
	</g>
	<g>
		<g>
			<path d="M526.4,175.7c41.1-0.5,82.3-1.4,123.2-6.1c1.9-0.2,2-3,0-3c-47.1,0.9-94.2,1.7-141.4,2.6c-1.8,0-1.9,2.4-0.4,2.9
				c25.4,9.7,52.9,7.5,79.4,5.1c1.9-0.2,1.9-3.2,0-3c-26.3,2.4-53.4,4.6-78.6-5c-0.1,1-0.3,2-0.4,2.9c47.1-0.9,94.2-1.7,141.4-2.6
				c0-1,0-2,0-3c-40.9,4.6-82.1,5.6-123.2,6.1C524.5,172.7,524.5,175.7,526.4,175.7L526.4,175.7z"/>
		</g>
	</g>
	<g>
		<g>
			<path d="M424.9,143.7c1.3,1,1.4,2.1,0.5,3.3c-0.2,0.3-0.3,0.6-0.5,0.9c-0.5,0.9-1.2,2-2,2.7c-1.4,1.5-2.3,1.4-2.6-0.3
				c-1-1-0.8-1.8,0.4-2.6c0.6-0.8,1.3-1.5,2-2.2c1.7-1.6,3.7-3.1,6.1-2.9c3.3,0.3,3.8,3.8,3.4,6.5c-0.3,2-1.3,4.5-3.4,5.2
				c-2.5,0.8-5.6-1.2-4.1-4c0.3-0.6,2.2-2.7,2.9-2.9c2.2-0.7,2.8,1.5,1.9,3.1c-0.6,1.2-1.8,1.9-3.2,1.5c-2.8-0.7-2.3-4.3,0.6-4.1
				c-0.5-0.5-1-1-1.5-1.5c0,1.5-0.3,3-1.2,4.3c-0.4,0.6-1.8,2.6-2.6,2.5c-1.2-0.1-0.8-2.5-0.7-3.1c0.4-1.6,1.5-2.8,2.9-3.4
				c-0.6-0.2-1.1-0.5-1.7-0.7c1.3,1.6,2.8,3.7,2.8,5.8c0,2.6-3.9,5.3-4.4,1.8c-0.3-1.9-3.2-1.1-2.9,0.8c0.5,3.7,5.2,5.2,8,2.8
				c4.2-3.5,1.8-9.2-0.9-12.7c-0.4-0.5-1-1-1.7-0.7c-4,1.6-8,8.4-3.6,11.9c4.7,3.8,8.9-6,8.9-9.3c0-0.9-0.7-1.4-1.5-1.5
				c-4.1-0.4-7.2,4.5-4.6,8c2.6,3.4,7.8,2.7,9.8-0.9c1.7-3,0.6-8.7-3.8-8.1c-3.9,0.6-8.4,5.9-6.8,9.9c1.5,3.7,6.6,4.7,9.7,2.6
				c3.8-2.6,5.1-8.8,3.3-12.9c-2-4.7-7.8-4.6-11.5-2.2c-3,2-9.1,7.5-6.1,11.4c3.8,5.1,9.5-1,11.2-4.6c1-2,1.4-4.5-0.3-6.3
				c-1.5-1.5-3.5-1.5-5.1-0.2C421.3,142.7,423.4,144.9,424.9,143.7L424.9,143.7z"/>
		</g>
	</g>
	<g>
		<g>
			<path d="M427.5,148.5c1.3,0.1,1.8,1.6,1.3,2.6c-0.5,1.1,0.8,2.1,1.8,1.8c1.6-0.4,3.4-2.7,2.2-4.3c-1.3-1.6-3.8-0.6-4.7,0.8
				c-1.1,1.6,1.5,3.1,2.6,1.5c0.1-0.2,0.3-0.1,0.2-0.1c-0.2-0.4-0.5-0.9-0.7-1.3c0,0.3,0,0.5-0.3,0.5c0.6,0.6,1.2,1.2,1.8,1.8
				c1.2-3-1.2-6.2-4.2-6.4C425.6,145.3,425.6,148.3,427.5,148.5L427.5,148.5z"/>
		</g>
	</g>
	<g>
		<g>
			<path d="M413.6,320.8c14.2,30.2,21.5,63.4,21,96.7c-0.4,25.7-6.4,56.3-30.7,70c-1.7,1-0.2,3.5,1.5,2.6
				c24.1-13.6,31.2-43.3,32.1-69c1.1-35.1-6.4-70.1-21.3-101.9C415.4,317.6,412.8,319.1,413.6,320.8L413.6,320.8z"/>
		</g>
	</g>
	<g>
		<g>
			<path d="M390.9,97.7c-12.2,10.2-23.2,21.9-31.7,35.4c-9.4,14.7-14.2,30.8-19.2,47.4c-11.5,37.8-22.3,75.7-33.2,113.6
				c-10.9,38-22,75.9-33.9,113.6c-5.9,18.6-11.8,37-20.1,54.6c-7.9,16.7-17.5,31.6-30.2,45.1c-6.8,7.2-13.9,14.2-22.3,19.5
				c-8.4,5.4-17.9,8.7-27.5,11.1c-20.4,5.1-41.6,5.5-62.4,7.2c-1.9,0.2-1.9,3.2,0,3c33.9-2.8,72-2.1,99.7-24.8
				c27.6-22.6,44.8-53.8,56.6-87c13.4-37.9,24.2-76.8,35.4-115.4c11.2-38.5,22-77,33.4-115.4c3.3-11,6.6-22,9.9-33
				c3.1-10,6.2-19.9,11.1-29.2c8.9-17,21.8-31.5,36.5-43.7C394.5,98.6,392.3,96.5,390.9,97.7L390.9,97.7z"/>
		</g>
	</g>
	<g>
		<g>
			<path d="M90.7,552.1c8.4-2.1,16.9-3.5,25.6-4.3c1.9-0.2,1.9-3.2,0-3c-8.9,0.8-17.7,2.3-26.4,4.4
				C88.1,549.7,88.9,552.6,90.7,552.1L90.7,552.1z"/>
		</g>
	</g>
	<g>
		<g>
			<path d="M430.1,73.8c-14.4,8.5-28.5,17.4-42.5,26.3c-1.6,1-0.1,3.6,1.5,2.6c14.1-8.9,28.2-17.9,42.5-26.3
				C433.3,75.4,431.8,72.8,430.1,73.8L430.1,73.8z"/>
		</g>
	</g>
	<g>
		<g>
			<path d="M428.1,149.6c-0.5,0-1-0.1-1.4-0.3c0.1,0.9,0.2,1.8,0.4,2.7c0.6-0.4,1.3-0.4,2.1-0.2c-0.3-0.3-0.7-0.7-1-1
				c0.5-0.1,1.1-0.3,1.6-0.4c-0.5-0.1-1-0.3-1.5-0.4c0.1,0.1,0.2,0.2,0.2,0.3c-0.1-0.5-0.3-1-0.4-1.5c-0.5,0.5-0.7,1.1-0.8,1.8
				c1.1-0.3,1.1-0.8-0.1-1.4c-0.4-0.1-2,0.8-2.5,0.9c-1.1,0.1-1.7-0.4-2.7-0.6c0.4,0.8,1,0.9,1.8,0.4c0.4,0,0.9,0,1.3-0.2
				c-0.1-0.5-0.3-1-0.4-1.5c-0.1,0.5-0.8,0.8-1.2,1c-0.3,0.2-0.6,0.3-1,0.4c0.1,0.1,0.3,0.2,0.4,0.3c1.1-0.8,1.6-1.9,2.9-2.5
				c0.5-0.2,1-0.4,1.5-0.5c0.9,0.2,1.2-0.1,0.9-0.9c0.2-0.6,0.1-0.9-0.5-1c-0.4-0.1-0.7-0.2-1-0.5c0.2,0,0.3,0.1,0.5,0.1
				c0.6-0.3,1.7-0.4,2.3-0.3c1.1,0.3,1.6,1.6-0.1,1.2c-0.8-0.2-1.7-0.6-2.4-1.1c-0.2-0.2-0.4-0.3-0.7-0.4c0.4,0,0.9,0,1.3,0
				c2.5,0.8,0.8,3.7-0.9,4.2c-0.6,0.2-3.3,0.2-3.4-0.5c-0.1,0.5-0.3,1-0.4,1.5c0.3-0.4,0.6-0.6,1-0.9c1.5-1.2-0.6-3.3-2.1-2.1
				c-3.1,2.6,0.1,4.9,3.2,5.2c3.6,0.4,7-2.4,6.9-6.1c-0.1-3.6-4.6-5.5-7.6-3.6c-3.6,2.3,1.2,5.7,3.4,6.5c3.4,1.2,6.6-0.1,5.5-4.2
				c-0.9-3.7-6.4-3.1-8.9-1.5c-3.3,2.2,1.3,5.7,3.8,5.6c1.3,0,2.6-1,2.4-2.5c-0.2-1.6-1.8-1.9-3.2-1.8c-2.1,0.2-4,1.1-5.6,2.5
				c-1.1,1-2.9,3-2.4,4.7c1.1,3.9,7.2,0.5,7.9-2c0.1-0.5,0-1.1-0.4-1.5c-2.3-2.2-11.1,0.4-7.5,4c2.6,2.5,10.8,2,11.1-2.5
				c0.3-4.1-7.4-1.5-6.3,1.9c1.2,3.6,8.6,0.3,5.9-3c-0.3-0.4-1-0.5-1.5-0.4c-3.4,1-3.3,7,0.7,5.4c1.2-0.5,2.1-2,1.3-3.3
				c-1.1-1.7-3.8-0.8-5.3-0.2c-1.3,0.6-0.7,2.3,0.4,2.7c0.7,0.3,1.4,0.4,2.2,0.4C430.1,152.7,430,149.7,428.1,149.6L428.1,149.6z"/>
		</g>
	</g>
	<g>
		<g>
			<path d="M430.9,151.8c-2.4,5.1-13.6,4.8-12.5-2.1c0.8-4.8,7.6-5.8,11.5-7c1.1-0.3,1.5-1.7,0.7-2.5c-4.1-3.9-10.2,1.2-13,4.5
				c-1.2,1.5,0.7,3.5,2.1,2.1c2.3-2.2,5.2-5.2,8.7-4.9c4.5,0.4,5.1,6.4,2,8.9c-1.5,1.2,0.6,3.3,2.1,2.1c3.6-2.9,3.9-9.5,0.1-12.4
				c-5.3-4-11.2,0.5-15.1,4.2c0.7,0.7,1.4,1.4,2.1,2.1c1.4-1.7,6.4-6.8,8.8-4.5c0.2-0.8,0.4-1.7,0.7-2.5c-3.7,1.1-9.1,2.1-11.8,5.2
				c-2,2.3-2.8,6.5-1.3,9.2c3.4,6.2,14.5,5.2,17.4-0.9C434.3,151.6,431.8,150.1,430.9,151.8L430.9,151.8z"/>
		</g>
	</g>
	<g>
		<g>
			<path d="M517.8,173.4c14.3,2,28.4,0.4,42.7-0.7c7.3-0.6,14.6-0.6,22-0.9c7.3-0.3,14.7-2.6,22-0.6c0.1-1,0.3-2,0.4-2.9
				c-22.9,1.6-45.9,3.2-68.8,4.8c-1.6,0.1-2.1,2.5-0.4,2.9c6.6,1.9,13.9,1,20.7,0.9c1.9,0,1.9-3,0-3c-4.4-0.1-8.8-0.1-13.2-0.2
				c-1.9,0-1.9,2.9,0,3c5.9,0.3,11.3,3,17.3,2.2c1.8-0.2,2-3.1,0-3c-1.9,0.3-3.8-0.1-5.5-1.2c-0.4,0.9-0.8,1.8-1.2,2.7
				c3.2,0.8,6.3,1.1,9.6,1c0-1,0-2,0-3c-3,0.3-5.4-0.1-8.2-1.2c-0.1,1-0.3,2-0.4,2.9c13-0.8,25.9-1.9,38.8-3.2c-0.1-1-0.3-2-0.4-2.9
				c-3.7,0.6-7.2,1.4-10.7,2.7c-1.5,0.5-1.4,3.1,0.4,2.9c6.9-0.8,13.8-1.7,20.6-2.9c-0.3-1-0.5-1.9-0.8-2.9
				c-6.5,1.2-13,2.3-19.5,3.5c-1.6,0.3-1.3,3.2,0.4,2.9c10.7-1.4,21.3-3.2,31.9-5.5c1.9-0.4,1.1-3.3-0.8-2.9
				c-10.3,2.3-20.6,4.1-31.1,5.4c0.1,1,0.3,2,0.4,2.9c6.5-1.2,13-2.3,19.5-3.5c1.9-0.3,1.1-3.2-0.8-2.9c-6.6,1.1-13.2,2-19.8,2.7
				c0.1,1,0.3,2,0.4,2.9c3.5-1.3,7-2.2,10.7-2.7c1.7-0.2,1.3-3.1-0.4-2.9c-12.9,1.3-25.9,2.4-38.8,3.2c-1.8,0.1-1.9,2.3-0.4,2.9
				c3,1.2,5.7,1.6,9,1.3c1.9-0.2,2-3.1,0-3c-3,0.1-5.8-0.2-8.8-0.9c-1.6-0.4-2.7,1.9-1.2,2.7c2.4,1.2,4.3,1.7,7,1.6c0-1,0-2,0-3
				c-5.9,0.8-11.4-2-17.3-2.2c0,1,0,2,0,3c4.4,0.1,8.8,0.1,13.2,0.2c0-1,0-2,0-3c-6.4,0.1-13.6,0.9-19.9-0.8c-0.1,1-0.3,2-0.4,2.9
				c22.9-1.6,45.9-3.2,68.8-4.8c1.6-0.1,2.1-2.5,0.4-2.9c-6.3-1.8-12.4-0.3-18.8,0.3c-7.3,0.7-14.8,0.3-22.1,0.8
				c-15.2,1.1-30.5,3.3-45.7,1.1C516.7,170.2,515.9,173.1,517.8,173.4L517.8,173.4z"/>
		</g>
	</g>
	<g>
		<g>
			<path d="M510.6,172c27.5-2.5,55.2-2.4,82.7,0.2c1.9,0.2,1.9-2.8,0-3c-27.5-2.6-55.1-2.7-82.7-0.2
				C508.7,169.1,508.7,172.1,510.6,172L510.6,172z"/>
		</g>
	</g>
</g>
</svg>
